<?xml version="1.0" standalone="no"?>
<!DOCTYPE svg PUBLIC "-//W3C//DTD SVG 20010904//EN"
 "http://www.w3.org/TR/2001/REC-SVG-20010904/DTD/svg10.dtd">
<svg version="1.0" xmlns="http://www.w3.org/2000/svg"
 width="1024.000000pt" height="1024.000000pt" viewBox="0 0 1024.000000 1024.000000"
 preserveAspectRatio="xMidYMid meet">

<g transform="translate(0.000000,1024.000000) scale(0.100000,-0.100000)"
fill="#00B050" stroke="none">
<path d="M4260 7987 c-3 -3 -39 -7 -80 -10 -76 -6 -152 -17 -250 -37 -30 -6
-75 -15 -100 -20 -70 -13 -118 -27 -212 -60 -49 -16 -93 -30 -99 -30 -22 0
-361 -163 -404 -195 -16 -12 -37 -25 -45 -28 -8 -4 -28 -16 -45 -27 -16 -11
-40 -25 -52 -31 -13 -7 -23 -16 -23 -21 0 -4 -5 -8 -11 -8 -23 0 -236 -176
-231 -191 1 -6 -4 -9 -11 -7 -27 6 -164 -140 -367 -389 -6 -7 -10 -15 -10 -18
0 -3 -17 -28 -37 -57 -21 -28 -44 -63 -53 -78 -8 -14 -30 -51 -48 -83 -18 -31
-33 -60 -33 -64 0 -4 -6 -15 -14 -23 -18 -22 -55 -97 -55 -114 0 -8 -3 -16 -7
-18 -12 -5 -53 -93 -53 -111 0 -9 -4 -18 -9 -21 -4 -3 -11 -20 -15 -37 -3 -17
-12 -45 -20 -62 -13 -31 -41 -113 -66 -192 -6 -23 -13 -53 -13 -67 -1 -14 -5
-24 -10 -21 -4 2 -7 1 -7 -4 0 -4 -7 -44 -16 -88 -9 -44 -20 -109 -24 -145 -5
-36 -11 -81 -14 -100 -37 -272 -31 -553 19 -875 14 -95 47 -241 65 -295 4 -14
16 -51 25 -82 9 -32 21 -58 27 -58 5 0 8 -8 6 -17 -1 -10 1 -23 5 -29 3 -6 20
-47 36 -90 33 -91 116 -255 134 -266 6 -4 8 -10 5 -13 -4 -4 7 -30 24 -58 34
-57 100 -159 108 -167 3 -3 23 -32 45 -64 36 -54 90 -124 155 -201 73 -86 313
-313 405 -383 104 -78 187 -133 295 -195 76 -43 229 -117 243 -117 7 0 17 -3
21 -8 4 -4 11 -7 14 -7 4 -1 21 -8 37 -17 52 -27 301 -107 372 -118 38 -7 84
-16 104 -22 20 -6 45 -7 57 -4 11 4 23 2 26 -3 6 -9 20 -12 141 -27 171 -21
497 -13 620 16 22 6 58 12 80 14 78 9 210 37 219 46 6 6 18 10 28 10 10 0 26
4 36 9 9 5 35 14 57 20 133 40 349 137 471 211 36 22 68 40 71 40 8 0 98 64
101 72 2 4 8 8 12 8 5 0 45 27 89 61 67 50 84 58 100 50 10 -6 21 -23 24 -38
12 -62 29 -118 48 -162 35 -77 70 -145 78 -151 4 -3 20 -22 35 -42 25 -33 116
-108 132 -108 3 0 20 -6 37 -14 107 -47 186 -56 471 -56 l236 0 0 28 c0 15 0
691 0 1502 0 1433 -2 1535 -31 1705 -10 57 -14 79 -37 170 -48 188 -135 441
-166 484 -6 7 -11 19 -12 26 -3 20 -83 184 -113 230 -14 22 -34 56 -44 75 -20
35 -108 169 -132 199 -133 166 -390 441 -413 441 -4 0 -32 23 -62 50 -30 28
-58 50 -63 50 -5 0 -16 7 -25 16 -26 27 -211 145 -292 186 -41 22 -82 43 -90
49 -15 9 -135 63 -175 79 -11 4 -40 17 -65 28 -25 11 -67 23 -93 27 -26 4 -47
10 -47 14 0 13 -212 68 -290 75 -14 2 -41 8 -60 14 -19 6 -64 14 -100 17 -36
3 -94 9 -130 14 -66 8 -432 15 -440 8z m385 -1092 c61 -8 125 -15 143 -15 17
0 32 -4 32 -10 0 -5 10 -10 22 -10 12 0 38 -5 57 -11 65 -21 146 -50 163 -60
10 -5 25 -9 33 -9 8 0 15 -3 15 -7 0 -5 27 -19 60 -33 33 -14 60 -28 60 -32 0
-5 5 -8 11 -8 14 0 123 -73 158 -106 14 -13 30 -24 34 -24 15 0 218 -203 265
-265 26 -33 50 -61 54 -63 4 -2 8 -9 8 -16 0 -6 13 -27 30 -46 16 -19 29 -41
30 -47 0 -7 4 -13 8 -13 4 0 17 -21 27 -46 11 -26 24 -52 30 -58 6 -6 21 -36
34 -66 13 -30 31 -73 41 -95 9 -22 22 -58 29 -80 7 -22 16 -49 21 -60 5 -11
18 -65 30 -120 11 -55 26 -123 32 -151 6 -32 8 -120 5 -240 -6 -191 -11 -248
-27 -294 -5 -14 -14 -50 -20 -80 -15 -68 -45 -161 -72 -220 -11 -25 -25 -56
-30 -70 -6 -14 -15 -34 -21 -45 -6 -11 -28 -53 -49 -93 -21 -40 -52 -91 -68
-113 -55 -72 -94 -124 -105 -138 -20 -27 -193 -197 -231 -226 -21 -16 -50 -41
-64 -55 -14 -13 -26 -23 -28 -22 -3 3 -94 -49 -102 -58 -9 -10 -175 -90 -187
-90 -7 0 -13 -4 -13 -10 0 -5 -8 -10 -17 -10 -9 0 -51 -12 -92 -26 -188 -66
-418 -87 -668 -61 -61 7 -115 15 -119 20 -4 4 -21 7 -37 7 -28 0 -191 50 -229
71 -10 5 -24 6 -33 3 -8 -3 -15 -2 -15 4 0 6 -35 27 -77 48 -116 56 -258 153
-362 249 -117 107 -299 337 -364 460 -49 93 -94 204 -117 285 -7 25 -16 54
-20 65 -5 11 -11 43 -15 70 -4 28 -11 77 -16 110 -32 216 -19 488 33 690 55
209 207 505 332 646 23 25 48 54 57 65 58 71 218 204 343 287 10 6 24 17 30
23 6 6 13 11 16 11 23 4 90 37 90 44 0 5 7 9 16 9 9 0 33 8 53 19 54 27 78 37
161 61 41 12 86 26 100 31 37 14 243 37 340 38 47 0 135 -6 195 -14z"/>
<path d="M7268 7945 c-4 -4 -27 -9 -52 -10 -25 -2 -66 -13 -90 -26 -64 -32
-150 -117 -176 -175 -39 -85 -64 -224 -42 -238 4 -2 9 -19 10 -38 2 -29 14
-61 54 -144 16 -34 95 -114 112 -114 9 0 16 -5 16 -11 0 -5 5 -7 10 -4 6 3 17
-1 26 -10 9 -9 23 -14 30 -11 7 3 26 -1 41 -9 36 -19 133 -19 169 -1 15 8 31
13 36 10 4 -3 18 1 30 8 13 7 25 13 28 13 22 3 73 41 109 80 79 85 113 199
104 343 -4 65 -61 191 -100 219 -13 10 -37 29 -53 43 -50 44 -59 50 -77 53
-10 1 -23 6 -29 10 -17 10 -148 20 -156 12z"/>
<path d="M8725 7941 c-176 -46 -291 -211 -289 -414 0 -45 6 -83 12 -89 7 -7
12 -20 12 -29 0 -30 43 -99 96 -155 38 -41 60 -56 87 -61 20 -3 34 -9 31 -14
-3 -5 0 -9 5 -9 16 0 23 -2 58 -17 63 -26 189 -6 290 45 83 43 158 147 182
253 14 61 6 175 -15 229 -21 54 -68 127 -103 158 -42 38 -109 82 -123 82 -8 0
-18 4 -24 10 -12 12 -181 21 -219 11z"/>
<path d="M7970 6648 c-19 -5 -50 -16 -68 -24 -46 -21 -134 -109 -165 -164 -50
-87 -71 -225 -46 -301 22 -68 59 -135 96 -175 40 -42 103 -90 103 -78 0 4 8 0
18 -8 28 -24 94 -38 175 -38 214 0 377 176 377 407 0 45 -5 95 -11 110 -37 90
-54 118 -97 161 -64 64 -83 78 -128 92 -22 7 -49 16 -61 21 -29 11 -148 9
-193 -3z"/>
</g>
</svg>
